<svg xmlns="http://www.w3.org/2000/svg" viewBox="0 0 192.46 202.64"><defs><style>.cls-1{fill-rule:evenodd;}</style></defs><g id="Layer_2" data-name="Layer 2"><g id="Layer_1-2" data-name="Layer 1"><g id="noun_stage_lighting_1395129" data-name="noun stage lighting 1395129"><g id="Group_265" data-name="Group 265"><path id="Path_2335" data-name="Path 2335" class="cls-1" d="M106.44,0a16.73,16.73,0,0,1,11.08,4,16,16,0,0,1,5.22,12.1V57.62l29.4-8.8a4.6,4.6,0,0,1,5.73,3.09h0l3.69,12.3,1.2-.36h0a20.57,20.57,0,0,1,25.41,13.87h0l3.41,11.39h0A20.56,20.56,0,0,1,178,114.67h0l-1.23.37,3.69,12.3a4.61,4.61,0,0,1-3.09,5.73L81.7,161.73,47,201.09a4.6,4.6,0,0,1-7.86-1.73L.19,69.49a4.62,4.62,0,0,1,3.1-5.73,4.69,4.69,0,0,1,2.52,0L56.44,77.5,90.12,67.4V16.13A16.05,16.05,0,0,1,95.35,4a16.71,16.71,0,0,1,11.08-4Zm0,9.21a7.74,7.74,0,0,0-5,1.74,6.19,6.19,0,0,0-2.07,5.17V78.61a24.8,24.8,0,0,1,14.18,0V16.13A6.17,6.17,0,0,0,111.47,11a7.75,7.75,0,0,0-5-1.75ZM150.37,59l-27.63,8.28v16.5a24.66,24.66,0,1,1-34.8,2.19,25.15,25.15,0,0,1,2.19-2.19V77L62.25,85.37l20,66.59,88.1-26.4Zm18.34,13.25a10.9,10.9,0,0,0-3.31.46h0l-1.2.35,9.94,33.19,1.2-.36h0a11.27,11.27,0,0,0,7.42-14.09h0l-3.4-11.4h0a11.33,11.33,0,0,0-10.64-8.14ZM11.41,74.79l34.16,114L74,156.57,52.85,86.06,11.42,74.79Zm95,12A15.31,15.31,0,0,0,98,89.27h0a15.44,15.44,0,1,0,17,.06h0a15.2,15.2,0,0,0-8.52-2.56Z"/><path id="Path_2336" data-name="Path 2336" class="cls-1" d="M157.72,116a4.6,4.6,0,0,1,1.29,9l-27.22,8.18a4.61,4.61,0,1,1-2.65-8.83l27.22-8.17a4.44,4.44,0,0,1,1.36-.21Z"/><path id="Path_2337" data-name="Path 2337" class="cls-1" d="M154.19,104.21a4.61,4.61,0,0,1,1.28,9l-14.37,4.3a4.6,4.6,0,1,1-2.8-8.77l.16,0,14.37-4.31a4.82,4.82,0,0,1,1.36-.21Z"/></g></g></g></g></svg>