<svg xmlns="http://www.w3.org/2000/svg" viewBox="0 0 199.62 182.1"><g id="Layer_2" data-name="Layer 2"><g id="Layer_1-2" data-name="Layer 1"><g id="noun_Theater_295203" data-name="noun Theater 295203"><path id="Path_2340" data-name="Path 2340" d="M144.29,134.26A17.21,17.21,0,0,1,117,129.45a5.26,5.26,0,1,0-9.38,4.75,27.72,27.72,0,0,0,43.84,7.73,5.26,5.26,0,0,0-7.19-7.67Zm15.33-43.63a18,18,0,0,0-15.53,4.65,5.26,5.26,0,0,0,7.22,7.66,7.51,7.51,0,0,1,10.61.25,7.68,7.68,0,0,1,1.29,1.85,5.26,5.26,0,1,0,9.44-4.63,1.17,1.17,0,0,1-.05-.11,17.89,17.89,0,0,0-13-9.65ZM183.81,57.1a122,122,0,0,0-37.75-12.58A140,140,0,0,0,120,42.34c-2.21-12.51-4.59-26-4.66-26.47C113.54,5.78,100,0,78.08,0A142.23,142.23,0,0,0,53.54,2.25,122.08,122.08,0,0,0,15.79,14.86C1.24,23.11-.73,31,.19,36.23L8.56,83.7c4.68,26.54,31.05,56.12,61.41,56.12h0a44.39,44.39,0,0,0,7.72-.67c.39-.07.77-.17,1.16-.25,7.37,22.67,23.85,39.12,43.08,42.51a45.48,45.48,0,0,0,7.9.69c29.46,0,56.31-28.28,61.23-56.14l8.37-47.5c.91-5.18-1.06-13.09-15.62-21.34ZM75.87,128.79a34.31,34.31,0,0,1-5.9.51h0c-24.43,0-47.1-25-51-47.42,0,0-8.27-46.94-8.38-47.51C10.3,33,12.16,29,21,24a111.52,111.52,0,0,1,34.4-11.37,132,132,0,0,1,22.71-2.09c17.45,0,26.35,4.28,26.86,7.15.1.59,8.38,47.53,8.38,47.53C117.71,90.09,101.28,124.31,75.87,128.79Zm104.82-4.65c-4.39,24.86-31.56,51.37-56.94,46.92-17.27-3.07-29.53-19.32-34.88-35.43,15.25-7,26.4-22,31.88-38.58a6.49,6.49,0,0,1,.41.61,5.26,5.26,0,1,0,9.46-4.58l-.09-.18a18.12,18.12,0,0,0-6.93-7.38,66.44,66.44,0,0,0,.08-22.11l-1.87-10.59a131.68,131.68,0,0,1,22.42,2.07,111.52,111.52,0,0,1,34.4,11.37c8.81,5,10.68,9,10.44,10.34-.11.61-8.38,47.53-8.38,47.53ZM96.81,47a5.27,5.27,0,0,0-6.65-3.34h0c-5.5,1.82-9.93.94-12.83-2.54a5.26,5.26,0,1,0-8.09,6.72A19.8,19.8,0,0,0,84.9,55.13a27.43,27.43,0,0,0,8.56-1.46A5.26,5.26,0,0,0,96.81,47ZM54.4,50.49a5.26,5.26,0,0,0-9.89-3.56c-1.53,4.27-5.4,6.61-11.2,6.79a5.26,5.26,0,0,0,.16,10.51h.16C43.8,63.91,51.37,58.9,54.4,50.49ZM67.45,81a27.59,27.59,0,0,0-20,14.9,5.26,5.26,0,0,0,9.39,4.74,17.2,17.2,0,0,1,23.07-7.73,17,17,0,0,1,4.19,2.93,5.26,5.26,0,1,0,7.35-7.52l-.16-.15A27.58,27.58,0,0,0,67.45,81Z"/></g></g></g></svg>